HIERARCHY
ROOT hip
{
	OFFSET 0.000000 0.000000 0.000000 
	CHANNELS 6 Xposition Yposition Zposition Xrotation Zrotation Yrotation
	JOINT abdomen
	{
		OFFSET 0.000000 3.402643 0.000000 
		CHANNELS 3 Xrotation Zrotation Yrotation
		JOINT chest
		{
			OFFSET 0.000000 8.438565 -0.680529 
			CHANNELS 3 Xrotation Zrotation Yrotation
			JOINT neck
			{
				OFFSET 0.000000 10.207942 -0.272212 
				CHANNELS 3 Xrotation Zrotation Yrotation
				JOINT head
				{
					OFFSET 0.000000 3.130431 0.000000 
					CHANNELS 3 Xrotation Zrotation Yrotation
					End Site
					{
						OFFSET 0.000000 3.130435 0.000000 
					}
				}
			}
			JOINT lCollar
			{
				OFFSET 3.470700 6.669187 -0.816635 
				CHANNELS 3 Yrotation Zrotation Xrotation
				JOINT lShldr
				{
					OFFSET 3.198488 0.000000 0.000000 
					CHANNELS 3 Zrotation Yrotation Xrotation
					JOINT lForeArm
					{
						OFFSET 10.139888 0.000000 0.000000 
						CHANNELS 3 Yrotation Zrotation Xrotation
						JOINT lHand
						{
							OFFSET 8.370511 0.000000 0.000000 
							CHANNELS 3 Zrotation Yrotation Xrotation
							End Site
							{
								OFFSET 4.083176 0.000000 0.000000 
							}
						}
					}
				}
			}
			JOINT rCollar
			{
				OFFSET -3.470700 6.669187 -0.816635 
				CHANNELS 3 Yrotation Zrotation Xrotation
				JOINT rShldr
				{
					OFFSET -3.198488 0.000000 0.000000 
					CHANNELS 3 Zrotation Yrotation Xrotation
					JOINT rForeArm
					{
						OFFSET -10.139888 0.000000 0.000000 
						CHANNELS 3 Yrotation Zrotation Xrotation
						JOINT rHand
						{
							OFFSET -8.370511 0.000000 0.000000 
							CHANNELS 3 Zrotation Yrotation Xrotation
							End Site
							{
								OFFSET -4.083176 0.000000 0.000000 
							}
						}
					}
				}
			}
		}
	}
	JOINT lThigh
	{
		OFFSET 5.308129 -1.633274 1.361059 
		CHANNELS 3 Xrotation Zrotation Yrotation
		JOINT lShin
		{
			OFFSET -2.041588 -20.007561 0.000000 
			CHANNELS 3 Xrotation Zrotation Yrotation
			JOINT lFoot
			{
				OFFSET 0.000000 -19.190928 -1.224953 
				CHANNELS 3 Xrotation Yrotation Zrotation
				End Site
				{
					OFFSET 0.000000 -2.449906 4.627600 
				}
			}
		}
	}
	JOINT rThigh
	{
		OFFSET -5.308129 -1.633274 1.361059 
		CHANNELS 3 Xrotation Zrotation Yrotation
		JOINT rShin
		{
			OFFSET 2.041588 -20.007561 0.000000 
			CHANNELS 3 Xrotation Zrotation Yrotation
			JOINT rFoot
			{
				OFFSET 0.000000 -19.190928 -1.224953 
				CHANNELS 3 Xrotation Yrotation Zrotation
				End Site
				{
					OFFSET 0.000000 -2.449906 4.627600 
				}
			}
		}
	}
}
MOTION
Frames: 20
Frame Time: 0.033333
0.627712 48.583721 -2.953385 -0.107422 -0.019531 -0.126917 0.000000 0.000000 0.000000 -11.308849 0.383041 -1.258239 20.030058 -1.815027 -0.479370 8.808597 -0.312497 0.018359 -3.519355 9.157742 6.311733 -10.902090 14.473973 -40.804451 -17.344645 7.824724 45.636822 -2.073213 6.919003 -8.080505 3.090466 -14.082293 8.028685 15.117813 -6.367941 -33.147690 12.871140 -13.171996 64.004150 4.833759 -4.100402 -7.995937 1.229155 3.872965 3.905139 8.149734 -4.119042 14.838951 -9.977636 0.083016 0.407324 0.623263 -4.679037 -8.568835 9.358025 2.102674 -20.186594 -9.571841 0.046274 -1.013426 
0.609592 48.582771 -2.965877 -0.097656 -0.009766 -0.205061 0.000000 0.000000 0.000000 -11.299137 0.421359 -1.158405 20.141460 -2.116074 -0.420378 8.671875 -0.097655 -0.048961 -3.519355 9.157742 6.311733 -10.931406 14.444496 -40.805305 -17.302732 7.812212 45.509495 -2.154983 6.799074 -8.060173 3.090466 -14.082293 8.028685 15.111901 -6.326817 -33.240166 12.922374 -13.178883 64.251839 5.017466 -3.936027 -7.957669 1.247409 3.850122 3.873308 8.044709 -4.111687 14.945127 -9.957788 0.068605 0.465139 0.506652 -4.680250 -8.552245 9.509741 2.087168 -20.091318 -9.426114 0.018347 -0.918478 
0.590476 48.594604 -2.979172 -0.039063 -0.029297 -0.195293 0.000000 0.000000 0.000000 -11.328526 0.478769 -1.140833 20.046114 -2.281510 -0.412645 8.779298 0.126953 -0.126542 -3.519355 9.157742 6.311733 -10.989947 14.393168 -40.927986 -17.324692 7.827058 45.605114 -2.193652 6.862699 -8.071528 3.090466 -14.082293 8.028685 15.076411 -6.355639 -33.000824 12.897577 -13.126652 63.865841 4.899998 -3.942952 -7.966222 1.229029 3.913539 3.898392 7.936653 -4.140467 14.932132 -9.889467 0.061711 0.472469 0.350994 -4.625474 -8.444201 9.650765 1.975766 -20.120142 -9.349481 0.017586 -0.821600 
0.577323 48.580414 -2.977280 -0.087891 0.039062 -0.205138 0.000000 0.000000 0.000000 -11.260075 0.421417 -1.109290 20.132074 -2.150617 -0.532941 8.535156 -0.058593 -0.175721 -3.519355 9.157742 6.311733 -10.940014 14.390796 -41.041611 -17.380245 7.873837 45.838024 -2.278240 6.693059 -8.051352 3.090466 -14.082293 8.028685 15.115096 -6.289540 -33.262695 12.921909 -13.178771 63.996891 4.873671 -3.828329 -7.955702 1.229440 3.845335 3.853825 8.028923 -4.085983 15.025233 -9.918965 0.076709 0.425757 0.546281 -4.656959 -8.470819 9.349813 2.016093 -20.173796 -9.474066 0.014209 -0.963725 
0.558682 48.588924 -2.979977 -0.078125 0.068359 -0.136812 0.000000 0.000000 0.000000 -11.269799 0.392670 -1.152464 20.207378 -1.937539 -0.622055 8.447265 -0.205076 -0.175222 -3.519355 9.157742 6.311733 -10.864079 14.414049 -40.627396 -17.269646 7.790400 45.353455 -2.026229 6.866405 -8.078740 3.090466 -14.082293 8.028685 15.159234 -6.296527 -33.231274 12.930938 -13.160302 64.212570 4.681590 -3.865644 -7.973127 1.169211 3.839055 3.855627 8.110929 -4.090242 14.872865 -9.791883 0.102826 0.384057 0.497457 -4.665573 -8.482553 9.440158 2.027783 -20.236248 -9.367820 0.027385 -0.913991 
0.540275 48.587982 -2.985087 -0.087891 0.107422 -0.048993 0.000000 0.000000 0.000000 -11.318555 0.335150 -1.229190 20.198189 -1.983487 -0.638576 8.525391 -0.019530 -0.244117 -3.519355 9.157742 6.311733 -10.835618 14.359669 -40.692608 -17.299946 7.797534 45.368835 -2.067723 6.880323 -8.079342 3.090466 -14.082293 8.028685 15.162159 -6.262041 -33.055492 12.878799 -13.137876 64.117592 4.572370 -3.792462 -7.981159 1.268544 3.817323 3.820759 7.881947 -4.076012 14.880798 -9.781904 0.070844 0.465824 0.390130 -4.735175 -8.569006 9.739242 2.063986 -20.352619 -9.593331 0.020853 -0.853050 
0.521491 48.599335 -2.989724 -0.097656 0.048828 -0.019614 0.000000 0.000000 0.000000 -11.318669 0.421331 -1.265971 19.999493 -1.704240 -0.775288 8.632813 -0.234374 -0.263832 -3.519355 9.157742 6.311733 -10.865080 14.310301 -40.998306 -17.357672 7.849163 45.751446 -2.084126 7.065412 -8.092464 3.090466 -14.082293 8.028685 15.161222 -6.267059 -33.114632 12.908780 -13.134970 64.143730 4.747918 -3.846302 -7.973875 1.229310 3.904964 3.868198 7.965444 -4.081324 14.777176 -9.723622 0.071452 0.433609 0.360723 -4.677771 -8.536195 9.800255 2.074256 -20.182440 -9.407938 0.002898 -0.807189 
0.505451 48.598389 -2.991049 -0.087891 0.078125 -0.019651 0.000000 0.000000 0.000000 -11.377237 0.402097 -1.291846 19.852186 -1.625210 -0.869706 8.789065 -0.312497 -0.323331 -3.519355 9.157742 6.311733 -10.809911 14.351421 -40.713459 -17.312565 7.811516 45.510708 -2.063377 7.058453 -8.092164 3.090466 -14.082293 8.028685 15.162086 -6.224239 -33.187515 12.920273 -13.153936 64.140831 4.575217 -3.949900 -7.992012 1.217512 3.888676 3.847829 7.975913 -4.062478 14.767769 -9.704264 0.064127 0.430054 0.350862 -4.676651 -8.546209 9.825768 2.063248 -20.240143 -9.408006 0.004890 -0.806238 
0.480043 48.592709 -2.984849 -0.224610 0.078124 -0.049134 0.000000 0.000000 0.000000 -11.250230 0.363963 -1.273568 19.920330 -1.596567 -0.916220 8.603517 -0.224608 -0.380898 -3.519355 9.157742 6.311733 -10.669535 14.372204 -40.566429 -17.272402 7.793352 45.560421 -2.246204 6.884929 -8.073430 3.090466 -14.082293 8.028685 15.169319 -6.259161 -32.907173 12.894794 -13.095716 63.656033 4.742446 -3.945738 -7.984087 1.394574 3.921049 3.922628 7.918223 -4.082742 14.751554 -9.713691 0.064384 0.462573 0.467454 -4.659429 -8.561610 9.878399 2.046433 -20.199556 -9.456870 0.010394 -0.814530 
0.471243 48.591290 -2.983431 -0.234375 0.068359 -0.156530 0.000000 0.000000 0.000000 -11.289317 0.383067 -1.170218 19.998739 -1.621873 -0.918683 8.515625 -0.224608 -0.390281 -3.519355 9.157742 6.311733 -10.714995 14.331279 -40.851646 -17.298876 7.828949 45.906052 -2.246131 6.953975 -8.074449 3.090466 -14.082293 8.028685 15.168436 -6.254471 -32.967140 12.887096 -13.129833 63.540390 4.811509 -3.876675 -7.964738 1.394286 3.951422 3.925007 7.969794 -4.097524 14.833937 -9.742651 0.091241 0.443146 0.496717 -4.622378 -8.538514 9.803245 2.048331 -20.106359 -9.398151 0.012272 -0.824255 
0.456245 48.587505 -2.984944 -0.263672 0.058593 -0.195582 0.000000 0.000000 0.000000 -11.181948 0.421531 -1.196606 19.870726 -1.513965 -0.939656 8.535154 -0.351561 -0.360909 -3.519355 9.157742 6.311733 -10.873500 14.434743 -41.111614 -17.374306 7.885424 46.095951 -2.183965 6.864055 -8.071380 3.090466 -14.082293 8.028685 15.144109 -6.225173 -33.197830 12.850172 -13.178725 63.341263 4.797796 -4.056213 -7.985861 1.364281 3.977545 3.967481 8.119576 -4.089179 14.784375 -9.821013 0.096346 0.413397 0.614386 -4.627539 -8.604626 9.626166 2.164487 -20.215466 -9.485363 0.026018 -0.893423 
0.436371 48.601231 -2.999803 -0.185547 0.078125 -0.205331 0.000000 0.000000 0.000000 -11.250243 0.373541 -1.197348 19.969893 -1.669932 -0.889606 8.427733 -0.009765 -0.410126 -3.519355 9.157742 6.311733 -10.879457 14.480525 -40.906883 -17.327272 7.842353 45.726257 -2.132709 6.920541 -8.081409 3.090466 -14.082293 8.028685 15.122210 -6.286738 -33.114372 12.838664 -13.158281 63.385433 5.046577 -4.069984 -7.978645 1.373646 3.976571 3.937581 7.902571 -4.096302 14.839182 -9.635574 0.072438 0.444680 0.341241 -4.643377 -8.593255 9.998373 2.097202 -19.993629 -9.408029 -0.009145 -0.780580 
0.429275 48.598389 -3.006899 -0.263672 0.107421 -0.225104 0.000000 0.000000 0.000000 -11.181858 0.354469 -1.212646 19.957861 -1.412820 -1.024081 8.330075 -0.273434 -0.428383 -3.519355 9.157742 6.311733 -11.041866 14.515380 -41.008331 -17.347361 7.851429 45.701427 -2.484310 6.752963 -8.045588 3.090466 -14.082293 8.028685 15.069361 -6.301190 -33.283920 12.863874 -13.226321 63.351753 4.753468 -3.884970 -7.973872 1.412383 3.957146 3.915060 7.945748 -4.083119 14.885859 -9.655060 0.074419 0.445669 0.428140 -4.689523 -8.673019 9.955346 2.172338 -19.892517 -9.446731 -0.000671 -0.819779 
0.414467 48.594604 -3.021613 -0.234375 0.097655 -0.205478 0.000000 0.000000 0.000000 -11.250134 0.277761 -1.227125 20.006922 -1.433681 -1.051208 8.447263 -0.292967 -0.458186 -3.519355 9.157742 6.311733 -11.012515 14.547000 -40.885857 -17.292171 7.843053 46.084530 -2.095490 6.797540 -8.069040 3.090466 -14.082293 8.028685 15.126270 -6.337868 -33.139114 12.850905 -13.188022 63.352230 4.655422 -4.027229 -7.993449 1.385645 4.021425 3.989690 7.915984 -4.149010 14.816058 -9.654890 0.067309 0.474637 0.389721 -4.650739 -8.651533 9.972978 2.151491 -19.941736 -9.495961 0.010688 -0.814496 
0.404720 48.581825 -3.030036 -0.234375 0.107421 -0.205518 0.000000 0.000000 0.000000 -11.259874 0.249019 -1.250749 19.996771 -1.379751 -1.095196 8.466795 -0.322264 -0.477747 -3.519355 9.157742 6.311733 -11.063632 14.588936 -40.779324 -17.287382 7.823254 45.805225 -2.100902 6.905267 -8.080960 3.090466 -14.082293 8.028685 15.064631 -6.347376 -33.249878 12.852344 -13.204779 63.425190 4.862826 -4.165307 -7.996837 1.285785 4.025541 4.003438 8.100336 -4.159502 14.742779 -9.674763 0.072296 0.433907 0.409142 -4.640942 -8.660170 9.865533 2.209859 -20.158466 -9.641498 0.020750 -0.896387 
0.395872 48.581356 -3.034814 -0.312501 0.146482 -0.274236 0.000000 0.000000 0.000000 -11.113365 0.220397 -1.205403 20.046165 -1.432526 -1.161304 8.242182 -0.302727 -0.554732 -3.519355 9.157742 6.311733 -11.213630 14.583149 -41.170597 -17.353397 7.867140 46.107647 -2.616889 6.990816 -8.060188 3.090466 -14.082293 8.028685 14.980439 -6.384521 -33.338566 12.893868 -13.223045 63.387672 4.944335 -4.114195 -7.988000 1.355039 3.978933 3.987560 8.138223 -4.136837 14.799600 -9.772026 0.056709 0.502191 0.437815 -4.670307 -8.671402 9.993765 2.164104 -20.037275 -9.729053 0.005014 -0.893403 
0.378886 48.581356 -3.048915 -0.332032 0.107420 -0.303357 0.000000 0.000000 0.000000 -11.035224 0.201286 -1.201363 20.095463 -1.498585 -1.086414 8.134764 -0.156244 -0.535831 -3.519355 9.157742 6.311733 -11.281387 14.587830 -41.410950 -17.445911 7.918935 46.102882 -2.701191 7.097354 -8.063515 3.090466 -14.082293 8.028685 15.020233 -6.379313 -33.279099 12.902487 -13.209975 63.202030 4.983177 -4.315820 -8.009775 1.345627 4.058806 4.053056 8.179164 -4.197144 14.705350 -9.936372 0.051775 0.651387 0.262762 -4.634825 -8.653768 10.354192 2.103045 -19.844961 -9.720688 0.011632 -0.814648 
0.379642 48.556282 -3.054119 -0.341798 0.136716 -0.440269 0.000000 0.000000 0.000000 -10.976594 0.134218 -1.070954 19.949598 -1.570417 -1.090139 8.398438 0.058594 -0.595913 -3.519355 9.157742 6.311733 -11.192363 14.615691 -41.220352 -17.430412 7.902681 45.733093 -2.759362 7.020165 -8.053520 3.090466 -14.082293 8.028685 14.968882 -6.396312 -33.130093 12.849470 -13.171635 63.271736 4.724705 -4.303430 -8.025869 1.042502 4.005147 4.029944 8.913061 -4.130658 14.829162 -10.201505 0.064552 0.517773 0.379664 -4.700103 -8.773367 10.174435 2.224334 -19.651260 -9.971351 0.032828 -1.053548 
0.389105 48.546341 -3.056911 -0.361329 0.107420 -0.547552 0.000000 0.000000 0.000000 -10.898482 0.163021 -0.998185 19.899363 -1.423956 -1.035699 8.554688 -0.009765 -0.498039 -3.519355 9.157742 6.311733 -11.255400 14.605048 -41.369465 -17.474146 7.932946 45.903648 -2.605893 6.913455 -8.049267 3.090466 -14.082293 8.028685 15.006860 -6.353519 -33.320736 12.903758 -13.215708 63.565536 4.702626 -4.355911 -8.026279 0.779395 4.084798 4.182498 9.568049 -4.268213 14.798920 -10.367922 0.078026 0.459825 0.506358 -4.691631 -8.799037 9.919341 2.291825 -19.544172 -9.988607 0.063986 -1.222219 
0.409829 48.531673 -3.057100 -0.244141 0.068359 -0.742479 0.000000 0.000000 0.000000 -10.927848 0.258891 -0.860531 19.761524 -1.266132 -1.130617 8.681642 -0.253905 -0.508202 -3.519355 9.157742 6.311733 -11.368110 14.620089 -41.466671 -17.515265 7.959951 45.875664 -2.453667 6.954504 -8.067719 3.090466 -14.082293 8.028685 14.939297 -6.331523 -33.523140 12.947464 -13.259639 63.619545 4.778584 -4.266134 -8.016746 0.341060 4.120225 4.219381 10.322992 -4.272536 14.983254 -10.543664 0.081252 0.461802 0.282423 -4.735228 -8.896374 10.138842 2.368041 -19.202497 -10.075974 0.092370 -1.295253 
